# xmcd
#
# Track frame offsets: 
#        150
#        20408
#        21511
#        36623
#        53809
#        76551
#        90522
#        108402
#        139174
#        159448
#        179682
#        197581
#        224205
#        279621
#        306653
#        325145
#
# Disc length: 4593 seconds
#
# Revision: 0
# Processed by: cddbd v1.5.2PL0 Copyright (c) Steve Scherf et al.
# Submitted via: ExactAudioCopyFreeDBPlugin 1.0
#
DISCID=ec11ef10
DTITLE=Rodney Crowell - Boston 3-30-89
DYEAR=1989
DGENRE=Crossover
TTITLE0=After All This Time
TTITLE1=chatter
TTITLE2=Heartbroke
TTITLE3=Stars On The Water
TTITLE4=Shame On The Moon
TTITLE5=Above and Beyond
TTITLE6=Ol' Pipeliner
TTITLE7=Highway 17
TTITLE8=Faith Is Mine
TTITLE9=After All This Time
TTITLE10=I Hear You Knockin'
TTITLE11=Keep My Feet On The Ground
TTITLE12=Song For The Life
TTITLE13=Ashes By Now- Looking For You
TTITLE14=Queen Of Hearts
TTITLE15=Better Slowdown
EXTD=
EXTT0=
EXTT1=
EXTT2=
EXTT3=
EXTT4=
EXTT5=
EXTT6=
EXTT7=
EXTT8=
EXTT9=
EXTT10=
EXTT11=
EXTT12=
EXTT13=
EXTT14=
EXTT15=
PLAYORDER=
